P3
# example from the man page
4 4
15
 9  0  15    0  15  0    0  7  14    15  0  15
 7  0  5    0  15  7    0  0  0    0  0  5
 0  0  0    8  11  3    0  15  7    4  2  1
 15  0  15    8  11  3    0  15  7    5  5  5  