P2 
5 3 
255 
072 069 076 076 079 
000 000 000 000 000 
000 000 000 000 000 
